{"title":"Lilyhammer S03E02 - Foreign Affairs - Ehhhh.mkv","uid":11557592,"size":403623109,"categoryP":"video","categoryS":"hd___tv_shows","magnet":"?xt=urn:btih:1f76b64f7d65ee572857f0574a6f7436c40e695b&amp;dn=Lilyhammer+S03E02+-+Foreign+Affairs+-+Ehhhh.mkv&amp;tr=udp%3A%2F%2Ftracker.openbittorrent.com%3A80&amp;tr=udp%3A%2F%2Fopen.demonii.com%3A1337&amp;tr=udp%3A%2F%2Ftracker.coppersurfer.tk%3A6969&amp;tr=udp%3A%2F%2Fexodus.desync.com%3A6969","seeders":11,"leechers":0,"uploader":"mynameisurlz","files":1,"time":1416844850,"description":"18 :03x02 - Foreign Affairs\nNov/05/2014\nFrank and Torgeir head to Brazil to save Roar from his troubles with the law, and Jan has second thoughts about his murder confession.\n\nEnglish subtitles are for non-English parts only.\n\nGeneral\nFormat : Matroska\nFormat version : Version 4 / Version 2\nFile size : 385 MiB\nDuration : 44mn 50s\nOverall bit rate : 1 200 Kbps\nEncoded date : UTC 2014-11-24 07:39:01\nWriting application : mkvmerge v7.3.0 ('Nouages') 32bit built on Oct 22 2014 18:44:01\nWriting library : libebml v1.3.0 + libmatroska v1.4.1\nDURATION : 00:44:50.752000000\nNUMBER_OF_FRAMES : 84086\nNUMBER_OF_BYTES : 64578048\n_STATISTICS_WRITING_APP : mkvmerge v7.3.0 ('Nouages') 32bit built on Oct 22 2014 18:44:01\n_STATISTICS_WRITING_DATE_UTC : 2014-11-24 07:39:01\n_STATISTICS_TAGS : BPS DURATION NUMBER_OF_FRAMES NUMBER_OF_BYTES\n\nVideo\nID : 1\nFormat : AVC\nFormat/Info : Advanced Video Codec\nFormat profile : &lt;a class=&quot;__cf_email__&quot; href=&quot;/cdn-cgi/l/email-protection&quot; data-cfemail=&quot;b3fbdad4dbf3ff879d82&quot;&gt;[email&amp;#160;protected]&lt;/a&gt;&lt;script cf-hash='f9e31' type=&quot;text/javascript&quot;&gt;\n/* &lt;![CDATA[ */!function(){try{var t=&quot;currentScript&quot;in document?document.currentScript:function(){for(var t=document.getElementsByTagName(&quot;script&quot;),e=t.length;e--;)if(t[e].getAttribute(&quot;cf-hash&quot;))return t[e]}();if(t&amp;&amp;t.previousSibling){var e,r,n,i,c=t.previousSibling,a=c.getAttribute(&quot;data-cfemail&quot;);if(a){for(e=&quot;&quot;,r=parseInt(a.substr(0,2),16),n=2;a.length-n;n+=2)i=parseInt(a.substr(n,2),16)^r,e+=String.fromCharCode(i);e=document.createTextNode(e),c.parentNode.replaceChild(e,c)}}}catch(u){}}();/* ]]&gt; */&lt;/script&gt;\nFormat settings, CABAC : Yes\nFormat settings, ReFrames : 9 frames\nCodec ID : V_MPEG4/ISO/AVC\nDuration : 44mn 50s\nBit rate : 1 010 Kbps\nWidth : 1 280 pixels\nHeight : 720 pixels\nDisplay aspect ratio : 16:9\nFrame rate mode : Constant\nFrame rate : 25.000 fps\nStandard : NTSC\nColor space : YUV\nChroma subsampling : 4:2:0\nBit depth : 8 bits\nScan type : Progressive\nBits/(Pixel*Frame) : 0.044\nStream size : 316 MiB (82%)\nWriting library : x264 core 142 r2479kMod dd79a61\nDefault : Yes\nForced : No\nColor range : Limited\n\nAudio\nID : 2\nFormat : AC-3\nFormat/Info : Audio Coding 3\nMode extension : CM (complete main)\nFormat settings, Endianness : Big\nCodec ID : A_AC3\nDuration : 44mn 50s\nBit rate mode : Constant\nBit rate : 192 Kbps\nChannel(s) : 2 channels\nChannel positions : Front: L R\nSampling rate : 48.0 KHz\nBit depth : 16 bits\nCompression mode : Lossy\nStream size : 61.6 MiB (16%)\nDefault : Yes\nForced : No","torrent":{"xt":"urn:btih:1f76b64f7d65ee572857f0574a6f7436c40e695b","amp;dn":"Lilyhammer+S03E02+-+Foreign+Affairs+-+Ehhhh.mkv","amp;tr":["udp%3A%2F%2Ftracker.openbittorrent.com%3A80","udp%3A%2F%2Fopen.demonii.com%3A1337","udp%3A%2F%2Ftracker.coppersurfer.tk%3A6969","udp%3A%2F%2Fexodus.desync.com%3A6969"],"infoHash":"1f76b64f7d65ee572857f0574a6f7436c40e695b","infoHashBuffer":{"type":"Buffer","data":[31,118,182,79,125,101,238,87,40,87,240,87,74,111,116,54,196,14,105,91]},"announce":[],"urlList":[]}}